{
	"asset":{
		"generator":"Khronos glTF Blender I/O v4.0.44",
		"version":"2.0"
	},
	"scene":0,
	"scenes":[
		{
			"name":"Scene",
			"nodes":[
				1
			]
		}
	],
	"nodes":[
		{
			"mesh":0,
			"name":"node_id30",
			"scale":[
				0.020729584619402885,
				0.020729584619402885,
				0.020729584619402885
			],
			"translation":[
				0.001224088715389371,
				-0.2559998333454132,
				0.28044795989990234
			]
		},
		{
			"children":[
				0
			],
			"name":"root"
		}
	],
	"materials":[
		{
			"doubleSided":true,
			"name":"Material",
			"pbrMetallicRoughness":{
				"baseColorTexture":{
					"index":0
				},
				"metallicFactor":0,
				"roughnessFactor":0.5
			}
		}
	],
	"meshes":[
		{
			"name":"mesh_id31",
			"primitives":[
				{
					"attributes":{
						"POSITION":0,
						"NORMAL":1,
						"TEXCOORD_0":2
					},
					"indices":3,
					"material":0
				}
			]
		}
	],
	"textures":[
		{
			"sampler":0,
			"source":0
		}
	],
	"images":[
		{
			"mimeType":"image/png",
			"name":"Image_0",
			"uri":"Image_0.png"
		}
	],
	"accessors":[
		{
			"bufferView":0,
			"componentType":5126,
			"count":8242,
			"max":[
				7.31804084777832,
				24.69900131225586,
				5.983739376068115
			],
			"min":[
				-7.436141014099121,
				0,
				-8.342395782470703
			],
			"type":"VEC3"
		},
		{
			"bufferView":1,
			"componentType":5126,
			"count":8242,
			"type":"VEC3"
		},
		{
			"bufferView":2,
			"componentType":5126,
			"count":8242,
			"type":"VEC2"
		},
		{
			"bufferView":3,
			"componentType":5123,
			"count":44937,
			"type":"SCALAR"
		}
	],
	"bufferViews":[
		{
			"buffer":0,
			"byteLength":98904,
			"byteOffset":0,
			"target":34962
		},
		{
			"buffer":0,
			"byteLength":98904,
			"byteOffset":98904,
			"target":34962
		},
		{
			"buffer":0,
			"byteLength":65936,
			"byteOffset":197808,
			"target":34962
		},
		{
			"buffer":0,
			"byteLength":89874,
			"byteOffset":263744,
			"target":34963
		}
	],
	"samplers":[
		{
			"magFilter":9729,
			"minFilter":9987
		}
	],
	"buffers":[
		{
			"byteLength":353620,
			"uri":"humanheart.bin"
		}
	]
}
