{
	"asset":{
		"generator":"Khronos glTF Blender I/O v4.0.44",
		"version":"2.0"
	},
	"extensionsUsed":[
		"KHR_materials_unlit"
	],
	"scene":0,
	"scenes":[
		{
			"name":"Scene",
			"nodes":[
				1
			]
		}
	],
	"nodes":[
		{
			"mesh":0,
			"name":"node_id42",
			"scale":[
				0.15280164778232574,
				0.15280164778232574,
				0.15280164778232574
			],
			"translation":[
				0.00028452990227378905,
				-0.2553817629814148,
				1.0996342897415161
			]
		},
		{
			"children":[
				0
			],
			"name":"root"
		}
	],
	"materials":[
		{
			"alphaCutoff":0.5,
			"alphaMode":"MASK",
			"doubleSided":true,
			"extensions":{
				"KHR_materials_unlit":{}
			},
			"name":"72",
			"pbrMetallicRoughness":{
				"baseColorTexture":{
					"index":0
				},
				"metallicFactor":0,
				"roughnessFactor":0.9
			}
		}
	],
	"meshes":[
		{
			"name":"mesh_id43",
			"primitives":[
				{
					"attributes":{
						"POSITION":0,
						"NORMAL":1,
						"TEXCOORD_0":2
					},
					"indices":3,
					"material":0
				}
			]
		}
	],
	"textures":[
		{
			"sampler":0,
			"source":0
		}
	],
	"images":[
		{
			"mimeType":"image/png",
			"name":"Image_0",
			"uri":"Image_0.png"
		}
	],
	"accessors":[
		{
			"bufferView":0,
			"componentType":5126,
			"count":5236,
			"max":[
				1.4461920261383057,
				3.346702814102173,
				4.882808685302734
			],
			"min":[
				-1.4499164819717407,
				-0.004045963287353516,
				-7.196481704711914
			],
			"type":"VEC3"
		},
		{
			"bufferView":1,
			"componentType":5126,
			"count":5236,
			"type":"VEC3"
		},
		{
			"bufferView":2,
			"componentType":5126,
			"count":5236,
			"type":"VEC2"
		},
		{
			"bufferView":3,
			"componentType":5123,
			"count":27852,
			"type":"SCALAR"
		}
	],
	"bufferViews":[
		{
			"buffer":0,
			"byteLength":62832,
			"byteOffset":0,
			"target":34962
		},
		{
			"buffer":0,
			"byteLength":62832,
			"byteOffset":62832,
			"target":34962
		},
		{
			"buffer":0,
			"byteLength":41888,
			"byteOffset":125664,
			"target":34962
		},
		{
			"buffer":0,
			"byteLength":55704,
			"byteOffset":167552,
			"target":34963
		}
	],
	"samplers":[
		{
			"magFilter":9729,
			"minFilter":9987
		}
	],
	"buffers":[
		{
			"byteLength":223256,
			"uri":"Abyssal%20Granadier.bin"
		}
	]
}
