{
	"asset":{
		"generator":"Khronos glTF Blender I/O v4.5.47",
		"version":"2.0"
	},
	"extensionsUsed":[
		"KHR_materials_emissive_strength"
	],
	"scene":0,
	"scenes":[
		{
			"name":"Scene",
			"nodes":[
				0,
				1,
				2,
				3,
				4,
				5,
				6,
				7,
				8,
				9,
				10
			]
		}
	],
	"nodes":[
		{
			"mesh":0,
			"name":"Cube"
		},
		{
			"mesh":1,
			"name":"Cylinder",
			"scale":[
				0.06483794003725052,
				0.06483794003725052,
				0.06483794003725052
			],
			"translation":[
				0.022325187921524048,
				0.14224278926849365,
				0.9086641669273376
			]
		},
		{
			"mesh":2,
			"name":"Cylinder.001",
			"scale":[
				0.06483794003725052,
				0.06483794003725052,
				0.06483794003725052
			],
			"translation":[
				-0.8508949875831604,
				0.1344367265701294,
				-0.852540910243988
			]
		},
		{
			"mesh":3,
			"name":"Cylinder.002",
			"scale":[
				0.03466055169701576,
				0.03466055169701576,
				0.03466055169701576
			],
			"translation":[
				0.8873848915100098,
				0.14224278926849365,
				-0.8495909571647644
			]
		},
		{
			"mesh":4,
			"name":"Plane.003",
			"translation":[
				-0.017044097185134888,
				6.801911354064941,
				0.011114627122879028
			]
		},
		{
			"mesh":5,
			"name":"Plane.004",
			"rotation":[
				0.5251175165176392,
				-0.5250121355056763,
				-0.4679020643234253,
				0.4792511761188507
			],
			"translation":[
				-0.3824862241744995,
				1.0828797817230225,
				-0.8845580220222473
			]
		},
		{
			"mesh":6,
			"name":"Plane.005",
			"translation":[
				-0.02640753984451294,
				5.182543754577637,
				-0.06173045188188553
			]
		},
		{
			"mesh":7,
			"name":"Plane.001",
			"translation":[
				-0.02640753984451294,
				3.8167898654937744,
				-0.06173045188188553
			]
		},
		{
			"mesh":8,
			"name":"Plane.006",
			"translation":[
				-0.02640753984451294,
				2.1309573650360107,
				-0.06173045188188553
			]
		},
		{
			"mesh":9,
			"name":"Plane.002",
			"translation":[
				-0.017044097185134888,
				6.801911354064941,
				0.011114627122879028
			]
		},
		{
			"mesh":10,
			"name":"Plane.007",
			"translation":[
				-0.017044097185134888,
				6.801911354064941,
				0.011114627122879028
			]
		}
	],
	"materials":[
		{
			"doubleSided":true,
			"name":"White",
			"pbrMetallicRoughness":{
				"metallicFactor":0,
				"roughnessFactor":0.5
			}
		},
		{
			"doubleSided":true,
			"name":"Material.003",
			"pbrMetallicRoughness":{
				"baseColorFactor":[
					0.800000011920929,
					0.800000011920929,
					0.800000011920929,
					1
				],
				"metallicFactor":0,
				"roughnessFactor":0.5
			}
		},
		{
			"doubleSided":true,
			"name":"Material.001",
			"pbrMetallicRoughness":{
				"metallicFactor":0.6605504751205444,
				"roughnessFactor":0.5
			}
		},
		{
			"doubleSided":true,
			"emissiveFactor":[
				1,
				1,
				1
			],
			"extensions":{
				"KHR_materials_emissive_strength":{
					"emissiveStrength":7.899999618530273
				}
			},
			"name":"Material.002",
			"pbrMetallicRoughness":{
				"baseColorFactor":[
					0,
					0,
					0,
					1
				]
			}
		}
	],
	"meshes":[
		{
			"name":"Cube.001",
			"primitives":[
				{
					"attributes":{
						"POSITION":0,
						"NORMAL":1,
						"TEXCOORD_0":2
					},
					"indices":3,
					"material":0
				}
			]
		},
		{
			"name":"Cylinder.001",
			"primitives":[
				{
					"attributes":{
						"POSITION":4,
						"NORMAL":5,
						"TEXCOORD_0":6
					},
					"indices":7
				}
			]
		},
		{
			"name":"Cylinder.002",
			"primitives":[
				{
					"attributes":{
						"POSITION":8,
						"NORMAL":9,
						"TEXCOORD_0":10
					},
					"indices":7
				}
			]
		},
		{
			"name":"Cylinder.003",
			"primitives":[
				{
					"attributes":{
						"POSITION":11,
						"NORMAL":12,
						"TEXCOORD_0":13
					},
					"indices":7
				}
			]
		},
		{
			"name":"Plane.004",
			"primitives":[
				{
					"attributes":{
						"POSITION":14,
						"NORMAL":15,
						"TEXCOORD_0":16
					},
					"indices":17,
					"material":1
				}
			]
		},
		{
			"name":"Plane.005",
			"primitives":[
				{
					"attributes":{
						"POSITION":18,
						"NORMAL":19,
						"TEXCOORD_0":20
					},
					"indices":21
				}
			]
		},
		{
			"name":"Plane.007",
			"primitives":[
				{
					"attributes":{
						"POSITION":22,
						"NORMAL":23,
						"TEXCOORD_0":24
					},
					"indices":25,
					"material":0
				}
			]
		},
		{
			"name":"Plane.008",
			"primitives":[
				{
					"attributes":{
						"POSITION":26,
						"NORMAL":27,
						"TEXCOORD_0":28
					},
					"indices":25,
					"material":0
				}
			]
		},
		{
			"name":"Plane.009",
			"primitives":[
				{
					"attributes":{
						"POSITION":29,
						"NORMAL":30,
						"TEXCOORD_0":31
					},
					"indices":25,
					"material":0
				}
			]
		},
		{
			"name":"Plane.010",
			"primitives":[
				{
					"attributes":{
						"POSITION":32,
						"NORMAL":33,
						"TEXCOORD_0":34
					},
					"indices":35,
					"material":2
				}
			]
		},
		{
			"name":"Plane.011",
			"primitives":[
				{
					"attributes":{
						"POSITION":36,
						"NORMAL":37,
						"TEXCOORD_0":38
					},
					"indices":39,
					"material":3
				}
			]
		}
	],
	"accessors":[
		{
			"bufferView":0,
			"componentType":5126,
			"count":554,
			"max":[
				1,
				0.6130398511886597,
				1
			],
			"min":[
				-1,
				-0.11480283737182617,
				-1
			],
			"type":"VEC3"
		},
		{
			"bufferView":1,
			"componentType":5126,
			"count":554,
			"type":"VEC3"
		},
		{
			"bufferView":2,
			"componentType":5126,
			"count":554,
			"type":"VEC2"
		},
		{
			"bufferView":3,
			"componentType":5123,
			"count":1800,
			"type":"SCALAR"
		},
		{
			"bufferView":4,
			"componentType":5126,
			"count":74,
			"max":[
				0.9848077297210693,
				102.1640396118164,
				1
			],
			"min":[
				-0.9848077297210693,
				-1,
				-1
			],
			"type":"VEC3"
		},
		{
			"bufferView":5,
			"componentType":5126,
			"count":74,
			"type":"VEC3"
		},
		{
			"bufferView":6,
			"componentType":5126,
			"count":74,
			"type":"VEC2"
		},
		{
			"bufferView":7,
			"componentType":5123,
			"count":204,
			"type":"SCALAR"
		},
		{
			"bufferView":8,
			"componentType":5126,
			"count":74,
			"max":[
				0.9848077297210693,
				102.59269714355469,
				1
			],
			"min":[
				-0.9848077297210693,
				-1,
				-1
			],
			"type":"VEC3"
		},
		{
			"bufferView":9,
			"componentType":5126,
			"count":74,
			"type":"VEC3"
		},
		{
			"bufferView":10,
			"componentType":5126,
			"count":74,
			"type":"VEC2"
		},
		{
			"bufferView":11,
			"componentType":5126,
			"count":74,
			"max":[
				0.9848077297210693,
				190.3675537109375,
				1
			],
			"min":[
				-0.9848077297210693,
				-1,
				-1
			],
			"type":"VEC3"
		},
		{
			"bufferView":12,
			"componentType":5126,
			"count":74,
			"type":"VEC3"
		},
		{
			"bufferView":13,
			"componentType":5126,
			"count":74,
			"type":"VEC2"
		},
		{
			"bufferView":14,
			"componentType":5126,
			"count":4,
			"max":[
				0.6782351732254028,
				-0.09448947012424469,
				0.6782351732254028
			],
			"min":[
				-0.6782351732254028,
				-0.09448947012424469,
				-0.6782351732254028
			],
			"type":"VEC3"
		},
		{
			"bufferView":15,
			"componentType":5126,
			"count":4,
			"type":"VEC3"
		},
		{
			"bufferView":16,
			"componentType":5126,
			"count":4,
			"type":"VEC2"
		},
		{
			"bufferView":17,
			"componentType":5123,
			"count":6,
			"type":"SCALAR"
		},
		{
			"bufferView":18,
			"componentType":5126,
			"count":24,
			"max":[
				1.0037469863891602,
				0.04319915175437927,
				-0.7378371953964233
			],
			"min":[
				-5.640468597412109,
				-0.18128105998039246,
				-1.0697989463806152
			],
			"type":"VEC3"
		},
		{
			"bufferView":19,
			"componentType":5126,
			"count":24,
			"type":"VEC3"
		},
		{
			"bufferView":20,
			"componentType":5126,
			"count":24,
			"type":"VEC2"
		},
		{
			"bufferView":21,
			"componentType":5123,
			"count":36,
			"type":"SCALAR"
		},
		{
			"bufferView":22,
			"componentType":5126,
			"count":630,
			"max":[
				1.0150940418243408,
				0.15814225375652313,
				1.1465206146240234
			],
			"min":[
				-1.0150940418243408,
				0,
				-1.0160784721374512
			],
			"type":"VEC3"
		},
		{
			"bufferView":23,
			"componentType":5126,
			"count":630,
			"type":"VEC3"
		},
		{
			"bufferView":24,
			"componentType":5126,
			"count":630,
			"type":"VEC2"
		},
		{
			"bufferView":25,
			"componentType":5123,
			"count":1974,
			"type":"SCALAR"
		},
		{
			"bufferView":26,
			"componentType":5126,
			"count":630,
			"max":[
				1.0150940418243408,
				0.15814225375652313,
				1.1465206146240234
			],
			"min":[
				-1.0150940418243408,
				0,
				-1.0160784721374512
			],
			"type":"VEC3"
		},
		{
			"bufferView":27,
			"componentType":5126,
			"count":630,
			"type":"VEC3"
		},
		{
			"bufferView":28,
			"componentType":5126,
			"count":630,
			"type":"VEC2"
		},
		{
			"bufferView":29,
			"componentType":5126,
			"count":630,
			"max":[
				1.0150940418243408,
				0.15814225375652313,
				1.1465206146240234
			],
			"min":[
				-1.0150940418243408,
				0,
				-1.0160784721374512
			],
			"type":"VEC3"
		},
		{
			"bufferView":30,
			"componentType":5126,
			"count":630,
			"type":"VEC3"
		},
		{
			"bufferView":31,
			"componentType":5126,
			"count":630,
			"type":"VEC2"
		},
		{
			"bufferView":32,
			"componentType":5126,
			"count":84,
			"max":[
				1,
				0,
				1
			],
			"min":[
				-1,
				-0.09448947012424469,
				-1
			],
			"type":"VEC3"
		},
		{
			"bufferView":33,
			"componentType":5126,
			"count":84,
			"type":"VEC3"
		},
		{
			"bufferView":34,
			"componentType":5126,
			"count":84,
			"type":"VEC2"
		},
		{
			"bufferView":35,
			"componentType":5123,
			"count":288,
			"type":"SCALAR"
		},
		{
			"bufferView":36,
			"componentType":5126,
			"count":28,
			"max":[
				1,
				0,
				1
			],
			"min":[
				-1,
				0,
				-1
			],
			"type":"VEC3"
		},
		{
			"bufferView":37,
			"componentType":5126,
			"count":28,
			"type":"VEC3"
		},
		{
			"bufferView":38,
			"componentType":5126,
			"count":28,
			"type":"VEC2"
		},
		{
			"bufferView":39,
			"componentType":5123,
			"count":78,
			"type":"SCALAR"
		}
	],
	"bufferViews":[
		{
			"buffer":0,
			"byteLength":6648,
			"byteOffset":0,
			"target":34962
		},
		{
			"buffer":0,
			"byteLength":6648,
			"byteOffset":6648,
			"target":34962
		},
		{
			"buffer":0,
			"byteLength":4432,
			"byteOffset":13296,
			"target":34962
		},
		{
			"buffer":0,
			"byteLength":3600,
			"byteOffset":17728,
			"target":34963
		},
		{
			"buffer":0,
			"byteLength":888,
			"byteOffset":21328,
			"target":34962
		},
		{
			"buffer":0,
			"byteLength":888,
			"byteOffset":22216,
			"target":34962
		},
		{
			"buffer":0,
			"byteLength":592,
			"byteOffset":23104,
			"target":34962
		},
		{
			"buffer":0,
			"byteLength":408,
			"byteOffset":23696,
			"target":34963
		},
		{
			"buffer":0,
			"byteLength":888,
			"byteOffset":24104,
			"target":34962
		},
		{
			"buffer":0,
			"byteLength":888,
			"byteOffset":24992,
			"target":34962
		},
		{
			"buffer":0,
			"byteLength":592,
			"byteOffset":25880,
			"target":34962
		},
		{
			"buffer":0,
			"byteLength":888,
			"byteOffset":26472,
			"target":34962
		},
		{
			"buffer":0,
			"byteLength":888,
			"byteOffset":27360,
			"target":34962
		},
		{
			"buffer":0,
			"byteLength":592,
			"byteOffset":28248,
			"target":34962
		},
		{
			"buffer":0,
			"byteLength":48,
			"byteOffset":28840,
			"target":34962
		},
		{
			"buffer":0,
			"byteLength":48,
			"byteOffset":28888,
			"target":34962
		},
		{
			"buffer":0,
			"byteLength":32,
			"byteOffset":28936,
			"target":34962
		},
		{
			"buffer":0,
			"byteLength":12,
			"byteOffset":28968,
			"target":34963
		},
		{
			"buffer":0,
			"byteLength":288,
			"byteOffset":28980,
			"target":34962
		},
		{
			"buffer":0,
			"byteLength":288,
			"byteOffset":29268,
			"target":34962
		},
		{
			"buffer":0,
			"byteLength":192,
			"byteOffset":29556,
			"target":34962
		},
		{
			"buffer":0,
			"byteLength":72,
			"byteOffset":29748,
			"target":34963
		},
		{
			"buffer":0,
			"byteLength":7560,
			"byteOffset":29820,
			"target":34962
		},
		{
			"buffer":0,
			"byteLength":7560,
			"byteOffset":37380,
			"target":34962
		},
		{
			"buffer":0,
			"byteLength":5040,
			"byteOffset":44940,
			"target":34962
		},
		{
			"buffer":0,
			"byteLength":3948,
			"byteOffset":49980,
			"target":34963
		},
		{
			"buffer":0,
			"byteLength":7560,
			"byteOffset":53928,
			"target":34962
		},
		{
			"buffer":0,
			"byteLength":7560,
			"byteOffset":61488,
			"target":34962
		},
		{
			"buffer":0,
			"byteLength":5040,
			"byteOffset":69048,
			"target":34962
		},
		{
			"buffer":0,
			"byteLength":7560,
			"byteOffset":74088,
			"target":34962
		},
		{
			"buffer":0,
			"byteLength":7560,
			"byteOffset":81648,
			"target":34962
		},
		{
			"buffer":0,
			"byteLength":5040,
			"byteOffset":89208,
			"target":34962
		},
		{
			"buffer":0,
			"byteLength":1008,
			"byteOffset":94248,
			"target":34962
		},
		{
			"buffer":0,
			"byteLength":1008,
			"byteOffset":95256,
			"target":34962
		},
		{
			"buffer":0,
			"byteLength":672,
			"byteOffset":96264,
			"target":34962
		},
		{
			"buffer":0,
			"byteLength":576,
			"byteOffset":96936,
			"target":34963
		},
		{
			"buffer":0,
			"byteLength":336,
			"byteOffset":97512,
			"target":34962
		},
		{
			"buffer":0,
			"byteLength":336,
			"byteOffset":97848,
			"target":34962
		},
		{
			"buffer":0,
			"byteLength":224,
			"byteOffset":98184,
			"target":34962
		},
		{
			"buffer":0,
			"byteLength":156,
			"byteOffset":98408,
			"target":34963
		}
	],
	"buffers":[
		{
			"byteLength":98564,
			"uri":"PlantRack.bin"
		}
	]
}
