{
	"asset":{
		"generator":"Khronos glTF Blender I/O v4.0.44",
		"version":"2.0"
	},
	"scene":0,
	"scenes":[
		{
			"name":"Scene",
			"nodes":[
				1
			]
		}
	],
	"nodes":[
		{
			"mesh":0,
			"name":"node_id30",
			"scale":[
				0.025599999353289604,
				0.025599999353289604,
				0.025599999353289604
			],
			"translation":[
				0,
				0,
				0.25599947571754456
			]
		},
		{
			"children":[
				0
			],
			"name":"root"
		}
	],
	"materials":[
		{
			"doubleSided":true,
			"name":"Material",
			"pbrMetallicRoughness":{
				"baseColorTexture":{
					"index":0
				},
				"metallicFactor":0,
				"roughnessFactor":0.5
			}
		}
	],
	"meshes":[
		{
			"name":"mesh_id31",
			"primitives":[
				{
					"attributes":{
						"POSITION":0,
						"NORMAL":1,
						"TEXCOORD_0":2
					},
					"indices":3,
					"material":0
				}
			]
		}
	],
	"textures":[
		{
			"sampler":0,
			"source":0
		}
	],
	"images":[
		{
			"mimeType":"image/png",
			"name":"Image_0",
			"uri":"Image_0.png"
		}
	],
	"accessors":[
		{
			"bufferView":0,
			"componentType":5126,
			"count":10199,
			"max":[
				10,
				10,
				9.999999046325684
			],
			"min":[
				-9.999996185302734,
				-10,
				-9.999995231628418
			],
			"type":"VEC3"
		},
		{
			"bufferView":1,
			"componentType":5126,
			"count":10199,
			"type":"VEC3"
		},
		{
			"bufferView":2,
			"componentType":5126,
			"count":10199,
			"type":"VEC2"
		},
		{
			"bufferView":3,
			"componentType":5123,
			"count":59400,
			"type":"SCALAR"
		}
	],
	"bufferViews":[
		{
			"buffer":0,
			"byteLength":122388,
			"byteOffset":0,
			"target":34962
		},
		{
			"buffer":0,
			"byteLength":122388,
			"byteOffset":122388,
			"target":34962
		},
		{
			"buffer":0,
			"byteLength":81592,
			"byteOffset":244776,
			"target":34962
		},
		{
			"buffer":0,
			"byteLength":118800,
			"byteOffset":326368,
			"target":34963
		}
	],
	"samplers":[
		{
			"magFilter":9729,
			"minFilter":9987
		}
	],
	"buffers":[
		{
			"byteLength":445168,
			"uri":"earth.bin"
		}
	]
}
