{
	"asset":{
		"generator":"Khronos glTF Blender I/O v4.2.70",
		"version":"2.0"
	},
	"extensionsUsed":[
		"KHR_materials_specular",
		"KHR_materials_ior"
	],
	"scene":0,
	"scenes":[
		{
			"name":"Scene",
			"nodes":[
				1
			]
		}
	],
	"nodes":[
		{
			"mesh":0,
			"name":"node_id30",
			"scale":[
				0.11641266196966171,
				0.11641266196966171,
				0.11641266196966171
			],
			"translation":[
				0.004310451447963715,
				-0.10420775413513184,
				0.26423799991607666
			]
		},
		{
			"children":[
				0
			],
			"name":"root"
		}
	],
	"materials":[
		{
			"alphaMode":"MASK",
			"doubleSided":true,
			"extensions":{
				"KHR_materials_specular":{
					"specularColorTexture":{
						"index":0
					}
				},
				"KHR_materials_ior":{
					"ior":1000
				}
			},
			"name":"49",
			"pbrMetallicRoughness":{
				"baseColorTexture":{
					"index":1
				},
				"metallicFactor":0,
				"metallicRoughnessTexture":{
					"index":2
				}
			}
		}
	],
	"meshes":[
		{
			"name":"mesh_id31",
			"primitives":[
				{
					"attributes":{
						"POSITION":0,
						"NORMAL":1,
						"TEXCOORD_0":2
					},
					"indices":3,
					"material":0
				}
			]
		}
	],
	"textures":[
		{
			"sampler":0,
			"source":0
		},
		{
			"sampler":0,
			"source":1
		},
		{
			"sampler":0,
			"source":2
		}
	],
	"images":[
		{
			"mimeType":"image/png",
			"name":"Image_1",
			"uri":"Image_1.png"
		},
		{
			"mimeType":"image/png",
			"name":"Image_0",
			"uri":"Image_0.png"
		},
		{
			"mimeType":"image/png",
			"name":"Image_1",
			"uri":"Image_1-1.png"
		}
	],
	"accessors":[
		{
			"bufferView":0,
			"componentType":5126,
			"count":1757,
			"max":[
				2.162046194076538,
				1.7898403406143188,
				1.2334656715393066
			],
			"min":[
				-2.236100912094116,
				0.00047160591930150986,
				-1.375004768371582
			],
			"type":"VEC3"
		},
		{
			"bufferView":1,
			"componentType":5126,
			"count":1757,
			"type":"VEC3"
		},
		{
			"bufferView":2,
			"componentType":5126,
			"count":1757,
			"type":"VEC2"
		},
		{
			"bufferView":3,
			"componentType":5123,
			"count":7497,
			"type":"SCALAR"
		}
	],
	"bufferViews":[
		{
			"buffer":0,
			"byteLength":21084,
			"byteOffset":0,
			"target":34962
		},
		{
			"buffer":0,
			"byteLength":21084,
			"byteOffset":21084,
			"target":34962
		},
		{
			"buffer":0,
			"byteLength":14056,
			"byteOffset":42168,
			"target":34962
		},
		{
			"buffer":0,
			"byteLength":14994,
			"byteOffset":56224,
			"target":34963
		}
	],
	"samplers":[
		{
			"magFilter":9729,
			"minFilter":9987
		}
	],
	"buffers":[
		{
			"byteLength":71220,
			"uri":"sofa.bin"
		}
	]
}
