{
	"asset":{
		"generator":"Khronos glTF Blender I/O v4.0.44",
		"version":"2.0"
	},
	"extensionsUsed":[
		"KHR_materials_unlit"
	],
	"scene":0,
	"scenes":[
		{
			"name":"Scene",
			"nodes":[
				3
			]
		}
	],
	"nodes":[
		{
			"mesh":0,
			"name":"node_id31",
			"scale":[
				2.523526906967163,
				2.523526906967163,
				2.523526906967163
			],
			"translation":[
				-0.008844339288771152,
				-256.030029296875,
				246.31292724609375
			]
		},
		{
			"mesh":1,
			"name":"node_id33",
			"scale":[
				2.523526906967163,
				2.523526906967163,
				2.523526906967163
			],
			"translation":[
				-0.008844339288771152,
				-256.030029296875,
				246.31292724609375
			]
		},
		{
			"children":[
				0,
				1
			],
			"name":"node_id35",
			"scale":[
				0.0010000000474974513,
				0.0010000000474974513,
				0.0010000000474974513
			]
		},
		{
			"children":[
				2
			],
			"name":"root"
		}
	],
	"materials":[
		{
			"alphaCutoff":0.5,
			"alphaMode":"MASK",
			"doubleSided":true,
			"extensions":{
				"KHR_materials_unlit":{}
			},
			"name":"84",
			"pbrMetallicRoughness":{
				"baseColorTexture":{
					"index":0
				},
				"metallicFactor":0,
				"roughnessFactor":0.9
			}
		},
		{
			"alphaCutoff":0.5,
			"alphaMode":"MASK",
			"doubleSided":true,
			"extensions":{
				"KHR_materials_unlit":{}
			},
			"name":"85",
			"pbrMetallicRoughness":{
				"baseColorTexture":{
					"index":1
				},
				"metallicFactor":0,
				"roughnessFactor":0.9
			}
		}
	],
	"meshes":[
		{
			"name":"mesh_id32",
			"primitives":[
				{
					"attributes":{
						"POSITION":0,
						"NORMAL":1,
						"TEXCOORD_0":2
					},
					"indices":3,
					"material":0
				}
			]
		},
		{
			"name":"mesh_id34",
			"primitives":[
				{
					"attributes":{
						"POSITION":4,
						"NORMAL":5,
						"TEXCOORD_0":6
					},
					"indices":7,
					"material":1
				}
			]
		}
	],
	"textures":[
		{
			"sampler":0,
			"source":0
		},
		{
			"sampler":0,
			"source":0
		}
	],
	"images":[
		{
			"mimeType":"image/png",
			"name":"Image_0",
			"uri":"Image_0.png"
		}
	],
	"accessors":[
		{
			"bufferView":0,
			"componentType":5126,
			"count":56831,
			"max":[
				73.58474731445312,
				202.90255737304688,
				49.640899658203125
			],
			"min":[
				-73.57775115966797,
				0.011909149587154388,
				-23.676788330078125
			],
			"type":"VEC3"
		},
		{
			"bufferView":1,
			"componentType":5126,
			"count":56831,
			"type":"VEC3"
		},
		{
			"bufferView":2,
			"componentType":5126,
			"count":56831,
			"type":"VEC2"
		},
		{
			"bufferView":3,
			"componentType":5123,
			"count":60510,
			"type":"SCALAR"
		},
		{
			"bufferView":4,
			"componentType":5126,
			"count":109289,
			"max":[
				36.46368408203125,
				199.93072509765625,
				29.228002548217773
			],
			"min":[
				-36.46368408203125,
				55.539939880371094,
				-41.96388626098633
			],
			"type":"VEC3"
		},
		{
			"bufferView":5,
			"componentType":5126,
			"count":109289,
			"type":"VEC3"
		},
		{
			"bufferView":6,
			"componentType":5126,
			"count":109289,
			"type":"VEC2"
		},
		{
			"bufferView":7,
			"componentType":5125,
			"count":113712,
			"type":"SCALAR"
		}
	],
	"bufferViews":[
		{
			"buffer":0,
			"byteLength":681972,
			"byteOffset":0,
			"target":34962
		},
		{
			"buffer":0,
			"byteLength":681972,
			"byteOffset":681972,
			"target":34962
		},
		{
			"buffer":0,
			"byteLength":454648,
			"byteOffset":1363944,
			"target":34962
		},
		{
			"buffer":0,
			"byteLength":121020,
			"byteOffset":1818592,
			"target":34963
		},
		{
			"buffer":0,
			"byteLength":1311468,
			"byteOffset":1939612,
			"target":34962
		},
		{
			"buffer":0,
			"byteLength":1311468,
			"byteOffset":3251080,
			"target":34962
		},
		{
			"buffer":0,
			"byteLength":874312,
			"byteOffset":4562548,
			"target":34962
		},
		{
			"buffer":0,
			"byteLength":454848,
			"byteOffset":5436860,
			"target":34963
		}
	],
	"samplers":[
		{
			"magFilter":9729,
			"minFilter":9987
		}
	],
	"buffers":[
		{
			"byteLength":5891708,
			"uri":"Astronaut.bin"
		}
	]
}
