{
	"asset":{
		"generator":"Khronos glTF Blender I/O v4.0.44",
		"version":"2.0"
	},
	"extensionsUsed":[
		"KHR_materials_unlit"
	],
	"scene":0,
	"scenes":[
		{
			"name":"Scene",
			"nodes":[
				3
			]
		}
	],
	"nodes":[
		{
			"mesh":0,
			"name":"node_id31",
			"scale":[
				35.51799774169922,
				35.51799774169922,
				35.51799774169922
			],
			"translation":[
				-7.47042179107666,
				-246.4189453125,
				301.6432189941406
			]
		},
		{
			"mesh":1,
			"name":"node_id33",
			"scale":[
				35.51799774169922,
				35.51799774169922,
				35.51799774169922
			],
			"translation":[
				-7.47042179107666,
				-246.4189453125,
				301.6432189941406
			]
		},
		{
			"children":[
				0,
				1
			],
			"name":"node_id35",
			"scale":[
				0.0010000000474974513,
				0.0010000000474974513,
				0.0010000000474974513
			]
		},
		{
			"children":[
				2
			],
			"name":"root"
		}
	],
	"materials":[
		{
			"alphaCutoff":0.5,
			"alphaMode":"MASK",
			"doubleSided":true,
			"extensions":{
				"KHR_materials_unlit":{}
			},
			"name":"50",
			"pbrMetallicRoughness":{
				"baseColorTexture":{
					"index":0
				},
				"metallicFactor":0,
				"roughnessFactor":0.9
			}
		},
		{
			"alphaCutoff":0.5,
			"alphaMode":"MASK",
			"doubleSided":true,
			"extensions":{
				"KHR_materials_unlit":{}
			},
			"name":"51",
			"pbrMetallicRoughness":{
				"baseColorTexture":{
					"index":1
				},
				"metallicFactor":0,
				"roughnessFactor":0.9
			}
		}
	],
	"meshes":[
		{
			"name":"mesh_id32",
			"primitives":[
				{
					"attributes":{
						"POSITION":0,
						"NORMAL":1,
						"TEXCOORD_0":2
					},
					"indices":3,
					"material":0
				}
			]
		},
		{
			"name":"mesh_id34",
			"primitives":[
				{
					"attributes":{
						"POSITION":4,
						"NORMAL":5,
						"TEXCOORD_0":6
					},
					"indices":7,
					"material":1
				}
			]
		}
	],
	"textures":[
		{
			"sampler":0,
			"source":0
		},
		{
			"sampler":0,
			"source":0
		}
	],
	"images":[
		{
			"mimeType":"image/png",
			"name":"Image_0",
			"uri":"Image_0.png"
		}
	],
	"accessors":[
		{
			"bufferView":0,
			"componentType":5126,
			"count":1821,
			"max":[
				6.755041122436523,
				13.597694396972656,
				8.630951881408691
			],
			"min":[
				-6.70118522644043,
				0.1942582130432129,
				-8.202251434326172
			],
			"type":"VEC3"
		},
		{
			"bufferView":1,
			"componentType":5126,
			"count":1821,
			"type":"VEC3"
		},
		{
			"bufferView":2,
			"componentType":5126,
			"count":1821,
			"type":"VEC2"
		},
		{
			"bufferView":3,
			"componentType":5123,
			"count":9894,
			"type":"SCALAR"
		},
		{
			"bufferView":4,
			"componentType":5126,
			"count":27769,
			"max":[
				7.417947769165039,
				13.875720977783203,
				8.879161834716797
			],
			"min":[
				-6.997278213500977,
				0,
				-8.492698669433594
			],
			"type":"VEC3"
		},
		{
			"bufferView":5,
			"componentType":5126,
			"count":27769,
			"type":"VEC3"
		},
		{
			"bufferView":6,
			"componentType":5126,
			"count":27769,
			"type":"VEC2"
		},
		{
			"bufferView":7,
			"componentType":5123,
			"count":140847,
			"type":"SCALAR"
		}
	],
	"bufferViews":[
		{
			"buffer":0,
			"byteLength":21852,
			"byteOffset":0,
			"target":34962
		},
		{
			"buffer":0,
			"byteLength":21852,
			"byteOffset":21852,
			"target":34962
		},
		{
			"buffer":0,
			"byteLength":14568,
			"byteOffset":43704,
			"target":34962
		},
		{
			"buffer":0,
			"byteLength":19788,
			"byteOffset":58272,
			"target":34963
		},
		{
			"buffer":0,
			"byteLength":333228,
			"byteOffset":78060,
			"target":34962
		},
		{
			"buffer":0,
			"byteLength":333228,
			"byteOffset":411288,
			"target":34962
		},
		{
			"buffer":0,
			"byteLength":222152,
			"byteOffset":744516,
			"target":34962
		},
		{
			"buffer":0,
			"byteLength":281694,
			"byteOffset":966668,
			"target":34963
		}
	],
	"samplers":[
		{
			"magFilter":9729,
			"minFilter":9987
		}
	],
	"buffers":[
		{
			"byteLength":1248364,
			"uri":"Animal_cell.bin"
		}
	]
}
