{
	"asset":{
		"generator":"Khronos glTF Blender I/O v4.0.44",
		"version":"2.0"
	},
	"scene":0,
	"scenes":[
		{
			"name":"Scene",
			"nodes":[
				1
			]
		}
	],
	"nodes":[
		{
			"mesh":0,
			"name":"node_id30",
			"scale":[
				0.05040423199534416,
				0.05040423199534416,
				0.05040423199534416
			],
			"translation":[
				0,
				-0.19255681335926056,
				0.23174133896827698
			]
		},
		{
			"children":[
				0
			],
			"name":"root"
		}
	],
	"materials":[
		{
			"doubleSided":true,
			"name":"Material",
			"pbrMetallicRoughness":{
				"baseColorTexture":{
					"index":0
				},
				"metallicFactor":0,
				"roughnessFactor":0.5
			}
		}
	],
	"meshes":[
		{
			"name":"mesh_id31",
			"primitives":[
				{
					"attributes":{
						"POSITION":0,
						"NORMAL":1,
						"TEXCOORD_0":2
					},
					"indices":3,
					"material":0
				}
			]
		}
	],
	"textures":[
		{
			"sampler":0,
			"source":0
		}
	],
	"images":[
		{
			"mimeType":"image/png",
			"name":"Image_0",
			"uri":"Image_0.png"
		}
	],
	"accessors":[
		{
			"bufferView":0,
			"componentType":5126,
			"count":6471,
			"max":[
				5.078938961029053,
				7.453226566314697,
				6.009122371673584
			],
			"min":[
				-5.078938961029053,
				0.1872844398021698,
				-4.597637176513672
			],
			"type":"VEC3"
		},
		{
			"bufferView":1,
			"componentType":5126,
			"count":6471,
			"type":"VEC3"
		},
		{
			"bufferView":2,
			"componentType":5126,
			"count":6471,
			"type":"VEC2"
		},
		{
			"bufferView":3,
			"componentType":5123,
			"count":29697,
			"type":"SCALAR"
		}
	],
	"bufferViews":[
		{
			"buffer":0,
			"byteLength":77652,
			"byteOffset":0,
			"target":34962
		},
		{
			"buffer":0,
			"byteLength":77652,
			"byteOffset":77652,
			"target":34962
		},
		{
			"buffer":0,
			"byteLength":51768,
			"byteOffset":155304,
			"target":34962
		},
		{
			"buffer":0,
			"byteLength":59394,
			"byteOffset":207072,
			"target":34963
		}
	],
	"samplers":[
		{
			"magFilter":9729,
			"minFilter":9987
		}
	],
	"buffers":[
		{
			"byteLength":266468,
			"uri":"printer.bin"
		}
	]
}
