{
	"asset":{
		"generator":"Khronos glTF Blender I/O v4.0.44",
		"version":"2.0"
	},
	"extensionsUsed":[
		"KHR_materials_unlit"
	],
	"scene":0,
	"scenes":[
		{
			"name":"Scene",
			"nodes":[
				1
			]
		}
	],
	"nodes":[
		{
			"mesh":0,
			"name":"node_id30",
			"scale":[
				0.017512695863842964,
				0.017512695863842964,
				0.017512695863842964
			],
			"translation":[
				0,
				-0.09062732011079788,
				0.25599953532218933
			]
		},
		{
			"children":[
				0
			],
			"name":"root"
		}
	],
	"materials":[
		{
			"alphaCutoff":0.5,
			"alphaMode":"MASK",
			"doubleSided":true,
			"extensions":{
				"KHR_materials_unlit":{}
			},
			"name":"51",
			"pbrMetallicRoughness":{
				"baseColorTexture":{
					"index":0
				},
				"metallicFactor":0,
				"roughnessFactor":0.9
			}
		}
	],
	"meshes":[
		{
			"name":"mesh_id31",
			"primitives":[
				{
					"attributes":{
						"POSITION":0,
						"NORMAL":1,
						"TEXCOORD_0":2
					},
					"indices":3,
					"material":0
				}
			]
		}
	],
	"textures":[
		{
			"sampler":0,
			"source":0
		}
	],
	"images":[
		{
			"mimeType":"image/png",
			"name":"Image_0",
			"uri":"Image_0.png"
		}
	],
	"accessors":[
		{
			"bufferView":0,
			"componentType":5126,
			"count":15912,
			"max":[
				14.617966651916504,
				10.349896430969238,
				11.06313705444336
			],
			"min":[
				-14.617966651916504,
				0,
				-11.06313705444336
			],
			"type":"VEC3"
		},
		{
			"bufferView":1,
			"componentType":5126,
			"count":15912,
			"type":"VEC3"
		},
		{
			"bufferView":2,
			"componentType":5126,
			"count":15912,
			"type":"VEC2"
		},
		{
			"bufferView":3,
			"componentType":5123,
			"count":81381,
			"type":"SCALAR"
		}
	],
	"bufferViews":[
		{
			"buffer":0,
			"byteLength":190944,
			"byteOffset":0,
			"target":34962
		},
		{
			"buffer":0,
			"byteLength":190944,
			"byteOffset":190944,
			"target":34962
		},
		{
			"buffer":0,
			"byteLength":127296,
			"byteOffset":381888,
			"target":34962
		},
		{
			"buffer":0,
			"byteLength":162762,
			"byteOffset":509184,
			"target":34963
		}
	],
	"samplers":[
		{
			"magFilter":9729,
			"minFilter":9987
		}
	],
	"buffers":[
		{
			"byteLength":671948,
			"uri":"aeroplane_character.bin"
		}
	]
}
