{
	"asset":{
		"generator":"Khronos glTF Blender I/O v4.0.44",
		"version":"2.0"
	},
	"scene":0,
	"scenes":[
		{
			"name":"Scene",
			"nodes":[
				1
			]
		}
	],
	"nodes":[
		{
			"mesh":0,
			"name":"node_id30",
			"scale":[
				0.12682071328163147,
				0.12682071328163147,
				0.12682071328163147
			],
			"translation":[
				0,
				-0.2534128427505493,
				0.26220187544822693
			]
		},
		{
			"children":[
				0
			],
			"name":"root"
		}
	],
	"materials":[
		{
			"doubleSided":true,
			"name":"Material",
			"pbrMetallicRoughness":{
				"baseColorTexture":{
					"index":0
				},
				"metallicFactor":0,
				"roughnessFactor":0.5
			}
		}
	],
	"meshes":[
		{
			"name":"mesh_id31.001",
			"primitives":[
				{
					"attributes":{
						"POSITION":0,
						"NORMAL":1,
						"TEXCOORD_0":2
					},
					"indices":3,
					"material":0
				}
			]
		}
	],
	"textures":[
		{
			"sampler":0,
			"source":0
		}
	],
	"images":[
		{
			"mimeType":"image/png",
			"name":"Image_0",
			"uri":"Image_0.png"
		}
	],
	"accessors":[
		{
			"bufferView":0,
			"componentType":5126,
			"count":29155,
			"max":[
				2.0185978412628174,
				3.9964005947113037,
				1.1719069480895996
			],
			"min":[
				-2.0185978412628174,
				-1.7881393432617188e-06,
				-1.2696969509124756
			],
			"type":"VEC3"
		},
		{
			"bufferView":1,
			"componentType":5126,
			"count":29155,
			"type":"VEC3"
		},
		{
			"bufferView":2,
			"componentType":5126,
			"count":29155,
			"type":"VEC2"
		},
		{
			"bufferView":3,
			"componentType":5123,
			"count":143676,
			"type":"SCALAR"
		}
	],
	"bufferViews":[
		{
			"buffer":0,
			"byteLength":349860,
			"byteOffset":0,
			"target":34962
		},
		{
			"buffer":0,
			"byteLength":349860,
			"byteOffset":349860,
			"target":34962
		},
		{
			"buffer":0,
			"byteLength":233240,
			"byteOffset":699720,
			"target":34962
		},
		{
			"buffer":0,
			"byteLength":287352,
			"byteOffset":932960,
			"target":34963
		}
	],
	"samplers":[
		{
			"magFilter":9729,
			"minFilter":9987
		}
	],
	"buffers":[
		{
			"byteLength":1220312,
			"uri":"skin.bin"
		}
	]
}
