{
	"asset":{
		"generator":"Khronos glTF Blender I/O v4.0.44",
		"version":"2.0"
	},
	"extensionsUsed":[
		"KHR_materials_unlit"
	],
	"scene":0,
	"scenes":[
		{
			"name":"Scene",
			"nodes":[
				1
			]
		}
	],
	"nodes":[
		{
			"mesh":0,
			"name":"node_id31",
			"scale":[
				0.03224566951394081,
				0.03224566951394081,
				0.03224566951394081
			],
			"translation":[
				0,
				-0.2555484175682068,
				0.5945699214935303
			]
		},
		{
			"children":[
				0
			],
			"name":"root"
		}
	],
	"materials":[
		{
			"alphaCutoff":0.5,
			"alphaMode":"MASK",
			"doubleSided":true,
			"extensions":{
				"KHR_materials_unlit":{}
			},
			"name":"49",
			"pbrMetallicRoughness":{
				"baseColorTexture":{
					"index":0
				},
				"metallicFactor":0,
				"roughnessFactor":0.9
			}
		}
	],
	"meshes":[
		{
			"name":"mesh_id32",
			"primitives":[
				{
					"attributes":{
						"POSITION":0,
						"NORMAL":1,
						"TEXCOORD_0":2
					},
					"indices":3,
					"material":0
				}
			]
		}
	],
	"textures":[
		{
			"sampler":0,
			"source":0
		}
	],
	"images":[
		{
			"mimeType":"image/png",
			"name":"Image_0",
			"uri":"Image_0.png"
		}
	],
	"accessors":[
		{
			"bufferView":0,
			"componentType":5126,
			"count":17374,
			"max":[
				6.242739200592041,
				15.864097595214844,
				18.43876838684082
			],
			"min":[
				-6.242739200592041,
				-0.014004707336425781,
				-18.43876838684082
			],
			"type":"VEC3"
		},
		{
			"bufferView":1,
			"componentType":5126,
			"count":17374,
			"type":"VEC3"
		},
		{
			"bufferView":2,
			"componentType":5126,
			"count":17374,
			"type":"VEC2"
		},
		{
			"bufferView":3,
			"componentType":5123,
			"count":92796,
			"type":"SCALAR"
		}
	],
	"bufferViews":[
		{
			"buffer":0,
			"byteLength":208488,
			"byteOffset":0,
			"target":34962
		},
		{
			"buffer":0,
			"byteLength":208488,
			"byteOffset":208488,
			"target":34962
		},
		{
			"buffer":0,
			"byteLength":138992,
			"byteOffset":416976,
			"target":34962
		},
		{
			"buffer":0,
			"byteLength":185592,
			"byteOffset":555968,
			"target":34963
		}
	],
	"samplers":[
		{
			"magFilter":9729,
			"minFilter":9987
		}
	],
	"buffers":[
		{
			"byteLength":741560,
			"uri":"Anger_Fish.bin"
		}
	]
}
